<?xml version="1.0" encoding="UTF-8"?>
<!DOCTYPE svg PUBLIC "-//W3C//DTD SVG 1.1//EN" "http://www.w3.org/Graphics/SVG/1.1/DTD/svg11.dtd">
<!-- Creator: CorelDRAW -->
<svg xmlns="http://www.w3.org/2000/svg" xml:space="preserve" width="1.14931in" height="0.787839in" version="1.1" style="shape-rendering:geometricPrecision; text-rendering:geometricPrecision; image-rendering:optimizeQuality; fill-rule:evenodd; clip-rule:evenodd"
viewBox="0 0 177.86 121.92"
 xmlns:xlink="http://www.w3.org/1999/xlink"
 xmlns:xodm="http://www.corel.com/coreldraw/odm/2003">
 <defs>
  <style type="text/css">
   <![CDATA[
    .fil1 {fill:#343C34}
    .fil0 {fill:#9E9E9E}
   ]]>
  </style>
 </defs>
 <g id="Layer_x0020_1">
  <metadata id="CorelCorpID_0Corel-Layer"/>
  <g id="_2444827236640">
   <g id="SNET-Main-Site---Main-Design">
    <g id="Landing-Page">
     <g id="Components2FAs-Seen-On">
      <g id="Group-2">
       <g id="Group-19">
        <g id="logo:-tech-crunch">
         <path id="Fill-1" class="fil0" d="M118.38 29.35l59.47 0 0 -29.35 -59.47 0 0 29.35zm-118.38 -29.35l0 29.35 29.46 0 0 60.55 30.07 0 0 -60.55 29.46 0 0 -29.35 -88.98 0zm88.93 29.35l0 60.55 88.93 0 0 -30.89 -59.47 -0.05 0 -29.66 -29.46 0 0 0.05z"/>
         <g id="Group-8">
          <g id="Group-4">
           <g id="Clip-3">
           </g>
           <path id="Fill-2" class="fil0" d="M62.91 121.1l0 -8.71c0,-3.02 -0.56,-3.94 -2.41,-3.94 -1.84,0 -2.46,0.92 -2.46,3.84l0 8.81 -4.87 0 0 -20.9 4.87 -2.25 0 7.74c0,-0.82 1.95,-1.49 3.74,-1.49 4.35,0 6.04,2.97 6.04,7.74l0 9.12 -4.92 0.05zm-20.18 0.82c-4.46,0 -7.94,-3.64 -7.94,-8.81 0,-5.22 3.43,-8.86 8.14,-8.86 3.23,0 5.33,1.59 6.71,3.74l-2.92 2.97c-1.02,-1.43 -2.05,-2.41 -3.89,-2.41 -2.15,0 -3.53,1.79 -3.53,4.56 0,2.71 1.38,4.51 3.53,4.51 1.74,0 2.87,-0.77 4,-2.15l2.87 2.66c-1.64,2.2 -3.59,3.79 -6.97,3.79l0 0zm-17.98 -13.57c-1.64,0 -2.61,0.61 -2.77,3.02l5.84 0c-0.15,-2.46 -1.08,-3.02 -3.07,-3.02l0 0zm7.27 5.48l-10.14 0c0.15,2.46 1.9,3.53 3.48,3.53 1.23,0 2.25,-0.26 2.92,-1.02l3.18 2.71c-1.38,1.74 -3.84,2.82 -6.1,2.82 -4.87,0 -7.99,-3.43 -7.99,-8.81 0,-5.23 3.28,-8.86 7.58,-8.86 4.51,0 7.17,3.64 7.17,8.5 0,0.67 -0.05,1.13 -0.1,1.13l0 0zm-19.82 -11.01l0 18.29 -4.87 0 0 -18.29 -7.33 0 0 -3.64 18.34 0 0 3.64 -6.15 0z"/>
          </g>
          <g id="Group-7">
           <g id="Clip-6">
           </g>
           <path id="Fill-5" class="fil1" d="M170.97 121.56l0 -9.17c0,-3.02 -0.56,-3.94 -2.41,-3.94 -1.84,0 -2.46,0.92 -2.46,3.84l0 8.81 -4.87 0 0 -20.9 4.87 -2.25 0 7.74c0,-0.82 1.95,-1.49 3.74,-1.49 4.35,0 6.04,2.97 6.04,7.74l0 9.12 -4.76 0 -0.15 0.51 0 0zm-19.93 0.36c-4.46,0 -7.94,-3.64 -7.94,-8.81 0,-5.17 3.43,-8.86 8.15,-8.86 3.23,0 5.33,1.59 6.71,3.74l-2.92 2.97c-1.02,-1.43 -2.05,-2.41 -3.89,-2.41 -2.15,0 -3.53,1.79 -3.53,4.56 0,2.71 1.38,4.51 3.53,4.51 1.74,0 2.87,-0.77 4,-2.15l2.87 2.66c-1.69,2.2 -3.64,3.79 -6.97,3.79l0 0zm-16.7 -0.82l0 -8.71c0,-3.02 -0.26,-3.94 -2.1,-3.94 -1.84,0 -2.15,0.92 -2.15,3.84l0 8.81 -4.87 0 0 -17.06 4.87 0 0 1.69c0,-0.82 1.64,-1.49 3.43,-1.49 4.35,0 5.74,2.97 5.74,7.74l0 9.12 -4.92 0zm-17.72 -0.15l0 -0.51c-1.23,0.82 -1.95,1.49 -3.74,1.49 -4.35,0 -6.05,-2.97 -6.05,-7.74l0 -10.14 3.69 0 0 9.73c0,3.02 1.18,3.94 3.02,3.94 1.84,0 3.07,-0.92 3.07,-3.84l0 -9.84 4.87 0 0 17.06 -5.07 0 0.2 -0.15zm-14.39 -11.17c-0.72,-0.67 -1.43,-1.08 -2.46,-1.08 -1.74,0 -2.71,0.77 -2.71,3.69l0 8.71 -4.87 0 0 -17.06 4.87 0 0 1.69c1.23,-0.82 1.74,-1.49 3.33,-1.49 1.43,0 2.46,0.56 3.07,1.18l-1.23 4.35zm-16.6 -4.25c-0.82,-1.54 -2.1,-2.46 -4.15,-2.46 -3.38,0 -5.33,2.97 -5.33,7.17 0,4.05 2,7.17 5.38,7.17 2.05,0 3.23,-0.87 4.46,-2.87l3.84 2.25c-1.54,3.18 -4.25,5.12 -8.4,5.12 -5.94,0 -9.89,-4.51 -9.89,-11.68 0,-6.86 4.15,-11.68 10.04,-11.68 4.25,0 6.86,2.05 8.3,5.02l-4.25 1.95z"/>
          </g>
         </g>
        </g>
       </g>
      </g>
     </g>
    </g>
   </g>
  </g>
 </g>
</svg>
